<mxfile host="app.diagrams.net" modified="2023-01-03T07:34:22.821Z" agent="5.0 (Windows NT 10.0; Win64; x64) AppleWebKit/537.36 (KHTML, like Gecko) Chrome/108.0.0.0 Safari/537.36 Edg/108.0.1462.54" etag="NYrnnpSj6IoOTpZlUObY" version="20.2.7" type="github">
  <diagram id="q90wzC6N9-QQrOUs7Nu1" name="第 1 页">
    <mxGraphModel dx="447" dy="1418" grid="1" gridSize="10" guides="1" tooltips="1" connect="1" arrows="1" fold="1" page="1" pageScale="1" pageWidth="827" pageHeight="1169" background="none" math="0" shadow="0">
      <root>
        <mxCell id="0" />
        <mxCell id="1" parent="0" />
        <mxCell id="61aphVsFncPEr8M_4rkp-3" value="" style="edgeStyle=orthogonalEdgeStyle;rounded=0;orthogonalLoop=1;jettySize=auto;html=1;" edge="1" parent="1" source="61aphVsFncPEr8M_4rkp-1" target="61aphVsFncPEr8M_4rkp-2">
          <mxGeometry relative="1" as="geometry" />
        </mxCell>
        <mxCell id="61aphVsFncPEr8M_4rkp-1" value="数据集制作&lt;br&gt;(转换为kiiti格式）" style="rounded=1;whiteSpace=wrap;html=1;fillColor=#fff2cc;strokeColor=#d6b656;" vertex="1" parent="1">
          <mxGeometry x="110" y="-90" width="120" height="60" as="geometry" />
        </mxCell>
        <mxCell id="61aphVsFncPEr8M_4rkp-5" value="" style="edgeStyle=orthogonalEdgeStyle;rounded=0;orthogonalLoop=1;jettySize=auto;html=1;" edge="1" parent="1" source="61aphVsFncPEr8M_4rkp-2" target="61aphVsFncPEr8M_4rkp-4">
          <mxGeometry relative="1" as="geometry" />
        </mxCell>
        <mxCell id="61aphVsFncPEr8M_4rkp-2" value="label聚合&amp;amp;筛选&lt;br&gt;（增量式数据集拼接）" style="whiteSpace=wrap;html=1;rounded=1;fillColor=#f8cecc;strokeColor=#b85450;" vertex="1" parent="1">
          <mxGeometry x="280" y="-90" width="120" height="60" as="geometry" />
        </mxCell>
        <mxCell id="61aphVsFncPEr8M_4rkp-7" value="" style="edgeStyle=orthogonalEdgeStyle;rounded=0;orthogonalLoop=1;jettySize=auto;html=1;" edge="1" parent="1" source="61aphVsFncPEr8M_4rkp-4" target="61aphVsFncPEr8M_4rkp-6">
          <mxGeometry relative="1" as="geometry" />
        </mxCell>
        <mxCell id="61aphVsFncPEr8M_4rkp-4" value="模型训练" style="whiteSpace=wrap;html=1;rounded=1;fillColor=#dae8fc;strokeColor=#6c8ebf;" vertex="1" parent="1">
          <mxGeometry x="450" y="-90" width="120" height="60" as="geometry" />
        </mxCell>
        <mxCell id="61aphVsFncPEr8M_4rkp-9" value="" style="edgeStyle=orthogonalEdgeStyle;rounded=0;orthogonalLoop=1;jettySize=auto;html=1;" edge="1" parent="1" source="61aphVsFncPEr8M_4rkp-6" target="61aphVsFncPEr8M_4rkp-8">
          <mxGeometry relative="1" as="geometry" />
        </mxCell>
        <mxCell id="61aphVsFncPEr8M_4rkp-6" value="模型推理&amp;amp;可视化" style="whiteSpace=wrap;html=1;rounded=1;fillColor=#d5e8d4;strokeColor=#82b366;" vertex="1" parent="1">
          <mxGeometry x="450" y="40" width="120" height="60" as="geometry" />
        </mxCell>
        <mxCell id="61aphVsFncPEr8M_4rkp-12" value="" style="edgeStyle=orthogonalEdgeStyle;rounded=0;orthogonalLoop=1;jettySize=auto;html=1;" edge="1" parent="1" source="61aphVsFncPEr8M_4rkp-8" target="61aphVsFncPEr8M_4rkp-11">
          <mxGeometry relative="1" as="geometry" />
        </mxCell>
        <mxCell id="61aphVsFncPEr8M_4rkp-8" value="最佳权重交付" style="whiteSpace=wrap;html=1;rounded=1;fillColor=#60a917;fontColor=#ffffff;strokeColor=#2D7600;" vertex="1" parent="1">
          <mxGeometry x="280" y="40" width="120" height="60" as="geometry" />
        </mxCell>
        <mxCell id="61aphVsFncPEr8M_4rkp-11" value="服务器端和部署端一致性校准" style="whiteSpace=wrap;html=1;fillColor=#1ba1e2;strokeColor=#006EAF;fontColor=#ffffff;rounded=1;" vertex="1" parent="1">
          <mxGeometry x="110" y="40" width="120" height="60" as="geometry" />
        </mxCell>
        <mxCell id="61aphVsFncPEr8M_4rkp-102" value="" style="edgeStyle=orthogonalEdgeStyle;rounded=0;orthogonalLoop=1;jettySize=auto;html=1;strokeWidth=2;" edge="1" parent="1" source="61aphVsFncPEr8M_4rkp-103" target="61aphVsFncPEr8M_4rkp-105">
          <mxGeometry relative="1" as="geometry" />
        </mxCell>
        <mxCell id="61aphVsFncPEr8M_4rkp-103" value="&lt;div style=&quot;font-size: 16px;&quot;&gt;&lt;b style=&quot;&quot;&gt;&lt;font style=&quot;font-size: 16px;&quot;&gt;Dataset production&lt;/font&gt;&lt;/b&gt;&lt;/div&gt;&lt;div style=&quot;font-size: 16px;&quot;&gt;&lt;b style=&quot;&quot;&gt;&lt;font style=&quot;font-size: 16px;&quot;&gt;(Convert to&amp;nbsp;&amp;nbsp;&lt;span style=&quot;background-color: initial;&quot;&gt;kiiti format)&lt;/span&gt;&lt;/font&gt;&lt;/b&gt;&lt;/div&gt;" style="rounded=1;whiteSpace=wrap;html=1;fillColor=#fff2cc;strokeColor=#d6b656;" vertex="1" parent="1">
          <mxGeometry x="110" y="180" width="190" height="110" as="geometry" />
        </mxCell>
        <mxCell id="61aphVsFncPEr8M_4rkp-104" value="" style="edgeStyle=orthogonalEdgeStyle;rounded=0;orthogonalLoop=1;jettySize=auto;html=1;strokeWidth=2;" edge="1" parent="1" source="61aphVsFncPEr8M_4rkp-105" target="61aphVsFncPEr8M_4rkp-107">
          <mxGeometry relative="1" as="geometry" />
        </mxCell>
        <mxCell id="61aphVsFncPEr8M_4rkp-105" value="&lt;div style=&quot;font-size: 16px;&quot;&gt;&lt;b style=&quot;&quot;&gt;&lt;font style=&quot;font-size: 16px;&quot;&gt;Label aggregation&lt;/font&gt;&lt;/b&gt;&lt;/div&gt;&lt;div style=&quot;font-size: 16px;&quot;&gt;&lt;b&gt;&lt;font style=&quot;font-size: 16px;&quot;&gt;&amp;amp;&lt;/font&gt;&lt;/b&gt;&lt;b style=&quot;background-color: initial;&quot;&gt;filtering&lt;/b&gt;&lt;/div&gt;&lt;div style=&quot;font-size: 16px;&quot;&gt;&lt;b style=&quot;&quot;&gt;&lt;font style=&quot;font-size: 16px;&quot;&gt;(Incremental dataset splicing)&lt;/font&gt;&lt;/b&gt;&lt;/div&gt;" style="whiteSpace=wrap;html=1;rounded=1;fillColor=#f8cecc;strokeColor=#b85450;" vertex="1" parent="1">
          <mxGeometry x="335" y="180" width="185" height="110" as="geometry" />
        </mxCell>
        <mxCell id="61aphVsFncPEr8M_4rkp-106" value="" style="edgeStyle=orthogonalEdgeStyle;rounded=0;orthogonalLoop=1;jettySize=auto;html=1;strokeWidth=2;" edge="1" parent="1" source="61aphVsFncPEr8M_4rkp-107" target="61aphVsFncPEr8M_4rkp-109">
          <mxGeometry relative="1" as="geometry" />
        </mxCell>
        <mxCell id="61aphVsFncPEr8M_4rkp-107" value="&lt;b&gt;&lt;font style=&quot;font-size: 18px;&quot;&gt;Model &lt;br&gt;Training&lt;/font&gt;&lt;/b&gt;" style="whiteSpace=wrap;html=1;rounded=1;fillColor=#dae8fc;strokeColor=#6c8ebf;" vertex="1" parent="1">
          <mxGeometry x="560" y="180" width="190" height="110" as="geometry" />
        </mxCell>
        <mxCell id="61aphVsFncPEr8M_4rkp-108" value="" style="edgeStyle=orthogonalEdgeStyle;rounded=0;orthogonalLoop=1;jettySize=auto;html=1;strokeWidth=2;" edge="1" parent="1" source="61aphVsFncPEr8M_4rkp-109" target="61aphVsFncPEr8M_4rkp-111">
          <mxGeometry relative="1" as="geometry" />
        </mxCell>
        <mxCell id="61aphVsFncPEr8M_4rkp-109" value="&lt;b style=&quot;font-size: 17px;&quot;&gt;&lt;font style=&quot;font-size: 17px;&quot;&gt;Inference&lt;br&gt;&amp;amp;Visualization&lt;/font&gt;&lt;/b&gt;" style="whiteSpace=wrap;html=1;rounded=1;fillColor=#d5e8d4;strokeColor=#82b366;" vertex="1" parent="1">
          <mxGeometry x="560" y="335" width="190" height="115" as="geometry" />
        </mxCell>
        <mxCell id="61aphVsFncPEr8M_4rkp-110" value="" style="edgeStyle=orthogonalEdgeStyle;rounded=0;orthogonalLoop=1;jettySize=auto;html=1;strokeWidth=2;" edge="1" parent="1" source="61aphVsFncPEr8M_4rkp-111" target="61aphVsFncPEr8M_4rkp-112">
          <mxGeometry relative="1" as="geometry" />
        </mxCell>
        <mxCell id="61aphVsFncPEr8M_4rkp-111" value="&lt;b&gt;&lt;font style=&quot;font-size: 15px;&quot; color=&quot;#000000&quot;&gt;Best Weight Delivery&lt;/font&gt;&lt;/b&gt;" style="whiteSpace=wrap;html=1;rounded=1;fillColor=#60a917;fontColor=#ffffff;strokeColor=#2D7600;" vertex="1" parent="1">
          <mxGeometry x="335" y="335" width="185" height="115" as="geometry" />
        </mxCell>
        <mxCell id="61aphVsFncPEr8M_4rkp-117" value="" style="edgeStyle=orthogonalEdgeStyle;rounded=0;orthogonalLoop=1;jettySize=auto;html=1;fontSize=16;fontColor=#000000;strokeWidth=2;" edge="1" parent="1" source="61aphVsFncPEr8M_4rkp-112" target="61aphVsFncPEr8M_4rkp-116">
          <mxGeometry relative="1" as="geometry" />
        </mxCell>
        <mxCell id="61aphVsFncPEr8M_4rkp-112" value="&lt;b&gt;&lt;font color=&quot;#000000&quot; style=&quot;font-size: 16px;&quot;&gt;Consistency verification on GPU and Orin&lt;/font&gt;&lt;/b&gt;" style="whiteSpace=wrap;html=1;fillColor=#1ba1e2;strokeColor=#006EAF;fontColor=#ffffff;rounded=1;" vertex="1" parent="1">
          <mxGeometry x="110" y="333.12" width="190" height="118.75" as="geometry" />
        </mxCell>
        <mxCell id="61aphVsFncPEr8M_4rkp-119" value="" style="edgeStyle=orthogonalEdgeStyle;rounded=0;orthogonalLoop=1;jettySize=auto;html=1;fontSize=16;fontColor=#000000;strokeWidth=2;" edge="1" parent="1" source="61aphVsFncPEr8M_4rkp-116" target="61aphVsFncPEr8M_4rkp-118">
          <mxGeometry relative="1" as="geometry" />
        </mxCell>
        <mxCell id="61aphVsFncPEr8M_4rkp-116" value="&lt;b style=&quot;font-size: 16px;&quot;&gt;Corner Case &lt;br&gt;&amp;amp;Data Backtracking&lt;/b&gt;" style="whiteSpace=wrap;html=1;fillColor=#e3c800;strokeColor=#B09500;fontColor=#000000;rounded=1;" vertex="1" parent="1">
          <mxGeometry x="110" y="500.01" width="190" height="99.99" as="geometry" />
        </mxCell>
        <mxCell id="61aphVsFncPEr8M_4rkp-121" style="edgeStyle=orthogonalEdgeStyle;rounded=0;orthogonalLoop=1;jettySize=auto;html=1;entryX=0;entryY=0.5;entryDx=0;entryDy=0;fontSize=14;fontColor=#000000;strokeWidth=2;" edge="1" parent="1" source="61aphVsFncPEr8M_4rkp-118" target="61aphVsFncPEr8M_4rkp-103">
          <mxGeometry relative="1" as="geometry">
            <Array as="points">
              <mxPoint x="428" y="640" />
              <mxPoint x="80" y="640" />
              <mxPoint x="80" y="235" />
            </Array>
          </mxGeometry>
        </mxCell>
        <mxCell id="61aphVsFncPEr8M_4rkp-118" value="&lt;b&gt;&lt;font style=&quot;font-size: 14px;&quot;&gt;Demand application (data collection&amp;amp;algorithm optimization direction)&lt;/font&gt;&lt;/b&gt;" style="whiteSpace=wrap;html=1;fillColor=#fa6800;strokeColor=#C73500;fontColor=#000000;rounded=1;" vertex="1" parent="1">
          <mxGeometry x="335" y="500.01" width="185" height="99.99" as="geometry" />
        </mxCell>
      </root>
    </mxGraphModel>
  </diagram>
</mxfile>
